<?xml version="1.0" encoding="UTF-8" standalone="no"?>
<svg width="446px" height="260px" viewBox="0 0 446 260" version="1.1" xmlns="http://www.w3.org/2000/svg" xmlns:xlink="http://www.w3.org/1999/xlink" xmlns:sketch="http://www.bohemiancoding.com/sketch/ns">
    <!-- Generator: Sketch 3.3.3 (12081) - http://www.bohemiancoding.com/sketch -->
    <title>Splash Screen</title>
    <desc>Created with Sketch.</desc>
    <defs>
        <path id="path-1" d="M0,0 L445.805724,0 L445.805724,236.946069 L0,236.946069 L0,0 Z"></path>
    </defs>
    <g id="Main-Page" stroke="none" stroke-width="1" fill="none" fill-rule="evenodd" sketch:type="MSPage">
        <g id="Splash-Screen" sketch:type="MSArtboardGroup" transform="translate(-497.000000, -394.000000)">
            <g id="Parity_Logo_cmyk" sketch:type="MSLayerGroup" transform="translate(720.000000, 512.500000) scale(1, -1) translate(-720.000000, -512.500000) translate(497.000000, 394.000000)">
                <mask id="mask-2" sketch:name="path18" fill="white">
                    <use xlink:href="#path-1"></use>
                </mask>
                <g id="path18"></g>
                <path d="M15.9063076,119.105035 C16.7958254,119.046796 17.8244584,119.00042 18.9837885,118.969144 C20.1432266,118.938946 21.8505998,118.926004 24.1145422,118.926004 C37.1961293,118.926004 47.0064022,121.268502 53.5493543,125.953499 C60.0880972,130.638495 63.3637284,137.690795 63.3637284,147.119027 C63.3637284,156.542945 60.6277221,163.331013 55.1598108,167.482153 C49.6876905,171.630057 40.6826458,173.708323 28.1447848,173.708323 C25.7670895,173.708323 22.2004926,173.500173 17.445102,173.087108 L16.9981847,172.996514 C16.9981847,169.144119 16.7958254,163.049525 16.4037339,154.719204 C16.0116424,146.389962 15.8177012,139.971819 15.8177012,135.465853 L15.9063076,119.105035 Z M0.088532158,55.1512737 C0.392070955,65.2069758 0.645020131,75.4527094 0.860027202,85.867875 C1.07081872,96.2816385 1.18042949,106.82191 1.18042949,117.478659 C1.18042949,128.671314 1.07081872,139.474631 0.860027202,149.890768 C0.645020131,160.306904 0.362561027,170.424296 0,180.249415 C1.54720175,179.977634 3.06068774,179.773798 4.55308519,179.63575 C6.04548263,179.49878 7.53789087,179.431914 9.03028832,179.431914 C11.8885843,179.431914 16.6989087,179.65732 23.4652655,180.114603 C30.2274132,180.565415 35.606826,180.795135 39.5991869,180.795135 C52.6471014,180.795135 62.735605,178.010453 69.8603806,172.444323 C76.9808392,166.872801 80.543227,158.999764 80.543227,148.816583 C80.543227,136.966044 76.1671928,127.840871 67.4194413,121.439983 C58.6715818,115.038018 46.1716025,111.84027 29.9239281,111.84027 C28.2544366,111.84027 26.2476794,111.882332 23.8952386,111.979397 C21.5427978,112.063519 18.8826628,112.202646 15.9063076,112.383833 L15.8177012,86.1837671 C15.8177012,82.4381426 15.9063076,78.0023871 16.0875137,72.8870699 C16.2688277,67.7726154 16.5428492,61.91335 16.9096862,55.3159604 C14.8649395,55.585585 13.3050997,55.7625665 12.230059,55.8467972 C11.1508092,55.9264983 10.1601226,55.9685597 9.26215435,55.9685597 C7.88358538,55.9685597 6.4249037,55.9007222 4.8987797,55.7625665 C3.36843583,55.6277542 1.76642977,55.4251044 0.088532158,55.1512737 L0.088532158,55.1512737 Z" id="path22" fill="#FFFFFF" sketch:type="MSShapeGroup" mask="url(#mask-2)"></path>
                <path d="M93.1695865,100.941075 C93.7007933,100.941075 95.2143333,100.890169 97.7100985,100.801625 C100.205864,100.708982 102.414872,100.662606 104.33734,100.662606 C105.825517,100.662606 108.77651,100.708982 113.194959,100.801625 C117.616646,100.890169 121.267748,100.941075 124.147186,100.941075 L121.626059,107.412064 C121.242925,108.465649 120.218717,110.972079 118.560989,114.928011 C116.904341,118.883942 113.701127,126.404311 108.94919,137.486959 L93.1695865,100.941075 Z M65.7583679,55.1512737 C74.969873,75.2846793 83.2751321,93.6739376 90.6696123,110.306646 C98.0642003,126.941403 104.952836,142.71444 111.339729,157.627914 L114.134986,157.627914 C120.997935,140.403218 127.99687,123.248625 135.129632,106.173948 C142.262395,89.09032 149.50524,72.0824023 156.849535,55.1512737 C155.555515,55.3918867 154.315457,55.585585 153.140153,55.7368983 C151.963771,55.8931727 150.80034,55.9685597 149.64878,55.9685597 C148.493983,55.9685597 147.30465,55.9007222 146.08186,55.7625665 C144.855832,55.6277542 143.54886,55.4251044 142.157707,55.1512737 C140.428749,60.5059098 138.506605,65.9737881 136.390196,71.5431532 C134.278104,77.1168322 132.018155,82.774742 129.620062,88.5177452 L127.103252,94.3858543 C124.936118,94.4786051 122.61681,94.549786 120.146407,94.5960536 C117.676004,94.6470666 113.940721,94.6727348 108.94919,94.6727348 C103.85675,94.6727348 100.062431,94.6470666 97.5666662,94.5960536 C95.0666919,94.549786 92.7606588,94.4786051 90.6485669,94.3858543 C88.296126,88.9803131 85.9142217,83.1585795 83.4943277,76.9196827 C81.0744338,70.6761484 78.4015637,63.4211984 75.4758253,55.1512737 C74.6579698,55.4251044 73.8443234,55.6277542 73.0264679,55.7625665 C72.2085044,55.9007222 71.394858,55.9685597 70.5812115,55.9685597 C69.8603806,55.9685597 69.093034,55.9007222 68.2751785,55.7625665 C67.4573229,55.6277542 66.618422,55.4251044 65.7583679,55.1512737 L65.7583679,55.1512737 Z" id="path24" fill="#FFFFFF" sketch:type="MSShapeGroup" mask="url(#mask-2)"></path>
                <path d="M183.746599,108.785963 C184.366089,108.688898 185.024431,108.629581 185.719468,108.604775 C186.411267,108.578891 187.359928,108.570263 188.556816,108.570263 C199.568402,108.570263 207.793364,110.369199 213.231704,113.959519 C218.66141,117.555233 221.38112,122.994099 221.38112,130.284748 C221.38112,136.893785 219.260394,141.880761 215.015704,145.235969 C210.769935,148.591177 204.454165,150.270399 196.069474,150.270399 C194.53478,150.270399 191.511802,150.124802 187.009171,149.840078 C185.951507,149.78831 185.137752,149.741935 184.564671,149.695559 C184.290541,147.49003 184.087642,145.16371 183.948419,142.718754 C183.813513,140.274877 183.746599,137.587259 183.746599,134.665608 L183.746599,108.785963 Z M170.926191,55.1512737 C171.20032,60.324722 171.40214,66.2434127 171.541363,72.9043258 C171.676269,79.5649154 171.744262,90.3748114 171.744262,105.331318 C171.744262,118.028693 171.676269,128.224816 171.541363,135.914509 C171.40214,143.60528 171.174418,150.208925 170.85496,155.722208 C171.238094,155.673675 171.714043,155.652105 172.292521,155.652105 C174.964743,155.515136 176.756298,155.448269 177.667185,155.448269 C179.484642,155.448269 183.000838,155.538863 188.215773,155.722208 C193.426391,155.899081 197.730439,155.992911 201.127918,155.992911 C212.224764,155.992911 220.508007,154.009552 225.985199,150.049307 C231.461313,146.08259 234.201528,140.091532 234.201528,132.072898 C234.201528,125.106877 231.642627,119.246318 226.532379,114.494454 C221.42321,109.737199 214.146908,106.494154 204.699155,104.7664 C211.718596,95.4900208 224.167743,79.8897591 242.055229,57.9486825 C243.063249,56.7062525 243.80901,55.770116 244.293593,55.1512737 C242.649896,55.4251044 241.110886,55.6277542 239.661453,55.7625665 C238.210941,55.9007222 236.793886,55.9685597 235.394099,55.9685597 C234.04072,55.9685597 232.662518,55.8931727 231.262731,55.7368983 C229.867261,55.585585 228.371421,55.3918867 226.781686,55.1512737 C222.99136,60.6743712 219.627339,65.4896502 216.67667,69.5976501 C213.729238,73.7001497 210.980389,77.4167626 208.438756,80.7277522 L192.33419,101.261281 C191.520436,102.40341 190.660274,103.22404 189.753704,103.730071 C188.847134,104.231357 187.772201,104.47952 186.537539,104.47952 C185.960141,104.47952 185.150703,104.408339 184.10491,104.26932 C183.910645,104.218739 183.793007,104.193933 183.746599,104.193933 L183.746599,77.3662889 C183.746599,74.0548678 183.810275,70.5531996 183.945181,66.8668925 C184.083325,63.1772421 184.260322,59.2752354 184.492361,55.1512737 C183.211291,55.4251044 182.026275,55.6277542 180.938391,55.7625665 C179.84727,55.9007222 178.784208,55.9685597 177.742732,55.9685597 C176.702336,55.9685597 175.610135,55.9007222 174.475843,55.7625665 C173.337235,55.6277542 172.153298,55.4251044 170.926191,55.1512737 L170.926191,55.1512737 Z" id="path26" fill="#FFFFFF" sketch:type="MSShapeGroup" mask="url(#mask-2)"></path>
                <path d="M258.783602,55.1512737 C259.074999,59.9417473 259.285453,65.2748134 259.411725,71.1387163 C259.537997,77.0123257 259.60599,84.3301522 259.60599,93.0971567 L259.60599,105.331318 C259.60599,121.001035 259.537997,132.106331 259.411725,138.648502 C259.285453,145.189594 259.074999,150.878672 258.783602,155.722208 C259.782987,155.538863 260.820146,155.401894 261.890762,155.3113 C262.961378,155.218549 264.13776,155.176488 265.424226,155.176488 C266.709612,155.176488 267.910817,155.218549 269.027841,155.3113 C270.145944,155.401894 271.279156,155.538863 272.422082,155.722208 C272.101544,152.416611 271.886774,148.557744 271.772373,144.151 C271.659052,139.742099 271.60401,133.973212 271.60401,126.83571 L271.60401,81.0146328 C271.60401,73.258289 271.659052,67.6598045 271.772373,64.2384844 C271.886774,60.8175957 272.101544,57.7847508 272.422082,55.1512737 C271.371971,55.3324614 270.301356,55.4672737 269.209155,55.5599167 C268.113716,55.6483536 266.945968,55.694729 265.710227,55.694729 C264.42484,55.694729 263.215001,55.6483536 262.072076,55.5599167 C260.930229,55.4672737 259.833712,55.3324614 258.783602,55.1512737" id="path28" fill="#FFFFFF" sketch:type="MSShapeGroup" mask="url(#mask-2)"></path>
                <path d="M318.909688,55.1512737 C319.183818,67.2801731 319.391034,79.1056909 319.52594,90.6325725 C319.660846,102.154385 319.72776,113.360953 319.72776,124.245157 L319.72776,148.907177 L315.811162,148.907177 C309.947598,148.907177 304.744534,148.741088 300.20413,148.407832 C295.659409,148.077812 291.806488,147.607587 288.635652,146.999314 C288.732784,147.962413 288.805094,148.75403 288.855819,149.379559 C288.902226,150.000774 288.927049,150.579928 288.927049,151.108392 C288.927049,151.683232 288.902226,152.317389 288.855819,153.017334 C288.805094,153.714044 288.732784,154.613511 288.635652,155.722208 C294.255305,155.538863 299.976409,155.401894 305.810833,155.3113 C311.64202,155.218549 317.653442,155.176488 323.850494,155.176488 C330.137124,155.176488 336.531679,155.227177 343.041714,155.338262 C349.542036,155.448269 356.227989,155.57661 363.096335,155.722208 C362.994885,155.28218 362.922575,154.772051 362.876168,154.192897 C362.826522,153.612665 362.804937,152.692706 362.804937,151.43302 C362.804937,150.21971 362.826522,149.311614 362.876168,148.707655 C362.922575,148.102617 362.994885,147.532092 363.096335,146.999314 C359.727996,147.658276 355.929036,148.141443 351.704853,148.446658 C347.476352,148.75403 342.57332,148.907177 337.000074,148.907177 L332.683075,148.833839 C332.455353,144.661129 332.282673,139.947014 332.172589,134.696884 C332.059268,129.441362 332.004226,123.17313 332.004226,115.882482 C332.004226,106.527372 332.072219,96.7661 332.207125,86.5958613 C332.342032,76.426809 332.548168,65.9404625 332.822298,55.1512737 C331.721463,55.3324614 330.621707,55.4672737 329.520873,55.5599167 C328.421117,55.6483536 327.273874,55.694729 326.076986,55.694729 C324.980469,55.694729 323.834305,55.6483536 322.640655,55.5599167 C321.443767,55.4672737 320.200471,55.3324614 318.909688,55.1512737" id="path30" fill="#FFFFFF" sketch:type="MSShapeGroup" mask="url(#mask-2)"></path>
                <path d="M399.440072,55.1512737 C399.714202,59.2752354 399.917101,63.0457732 400.056324,66.4549062 C400.19123,69.858431 400.258144,73.1276828 400.258144,76.2456213 C400.258144,79.3202042 400.19123,82.5223734 400.056324,85.8636688 C399.917101,89.1960128 399.714202,92.7175253 399.440072,96.4122447 C392.526398,108.326523 386.227896,119.109349 380.545646,128.755437 C374.862316,138.400447 369.521109,147.390809 364.529578,155.722208 C365.730783,155.538863 366.98703,155.401894 368.306953,155.3113 C369.625796,155.218549 371.055802,155.176488 372.593733,155.176488 C374.128426,155.176488 375.56167,155.218549 376.910732,155.3113 C378.25224,155.401894 379.520358,155.538863 380.722643,155.722208 C384.613338,146.915191 388.85479,138.358386 393.450236,130.055027 C398.037048,121.751669 403.002676,113.697444 408.339566,105.89548 C413.436863,114.127765 418.196355,122.39769 422.619121,130.702126 C427.041886,139.005485 431.131164,147.344433 434.878319,155.722208 C435.789206,155.538863 436.691459,155.401894 437.576444,155.3113 C438.462508,155.218549 439.385267,155.176488 440.342561,155.176488 C441.395909,155.176488 442.366155,155.218549 443.25114,155.3113 C444.140441,155.401894 444.988732,155.538863 445.805724,155.722208 C439.608671,145.66629 433.727839,135.914509 428.15891,126.461471 C422.589981,117.007355 417.307053,107.782852 412.315523,98.7840781 C412.202201,94.5586297 412.121258,91.364765 412.067295,89.2035623 C412.012253,87.0423596 411.986351,85.0285876 411.986351,83.1585795 C411.986351,78.9840363 412.054344,74.5768609 412.18925,69.9427696 C412.328474,65.3127765 412.530293,60.3799412 412.804423,55.1512737 C411.687399,55.4251044 410.587644,55.6277542 409.49976,55.7625665 C408.407559,55.9007222 407.332626,55.9685597 406.266327,55.9685597 C405.203266,55.9685597 404.112145,55.9007222 402.998359,55.7625665 C401.881335,55.6277542 400.696319,55.4251044 399.440072,55.1512737" id="path32" fill="#FFFFFF" sketch:type="MSShapeGroup" mask="url(#mask-2)"></path>
                <path d="M238.450535,178.647845 L291.950028,205.836787 L291.974851,190.261115 L238.480754,163.066781 L238.450535,178.647845 Z M238.396572,209.806739 L291.894986,236.998916 L291.924126,221.420008 L238.425712,194.227831 L238.396572,209.806739 L238.396572,209.806739 Z" id="path34" fill="#EE2049" sketch:type="MSShapeGroup" mask="url(#mask-2)"></path>
                <path d="M0.39544361,5.46031809 L0.39544361,25.1429222 L13.7174811,25.1429222 L13.7174811,22.8177878 L2.9919719,22.8177878 L2.9919719,16.7167231 L12.2667535,16.7167231 L12.2667535,14.3915887 L2.9919719,14.3915887 L2.9919719,5.46031809 L0.39544361,5.46031809" id="path36" fill="#FFFFFF" sketch:type="MSShapeGroup" mask="url(#mask-2)"></path>
                <path d="M18.6314134,12.5948106 C18.6314134,10.7752978 19.0281457,9.40989738 19.8223656,8.50413139 C20.6158301,7.59793401 21.6153234,7.14505102 22.8201979,7.14505102 C24.015467,7.14505102 25.0103195,7.60004786 25.8046474,8.51045139 C26.5980039,9.42169615 26.9955996,10.8097881 26.9955996,12.6745116 C26.9955996,14.433758 26.5959534,15.766674 25.7974164,16.6725047 C24.9989874,17.5782275 24.0066172,18.0315204 22.8201979,18.0315204 C21.6153234,18.0315204 20.6158301,17.5808159 19.8223656,16.67876 C19.0281457,15.7772433 18.6314134,14.4173648 18.6314134,12.5948106 L18.6314134,12.5948106 Z M16.1356482,12.5881239 C16.1356482,15.2220324 16.8692143,17.1717416 18.3366703,18.4401634 C19.5626981,19.4938562 21.0567036,20.0200555 22.8201979,20.0200555 C24.7797918,20.0200555 26.3812906,19.3796432 27.6254498,18.0993579 C28.8686376,16.8170235 29.4913648,15.0472078 29.4913648,12.7886167 C29.4913648,10.9598072 29.2156165,9.51985027 28.6654149,8.47042832 C28.1153213,7.42099558 27.314302,6.60790495 26.2628969,6.02652968 C25.21106,5.44767809 24.0639254,5.15741107 22.8201979,5.15741107 C20.8244491,5.15741107 19.2115102,5.79566634 17.9808417,7.07174549 C16.750281,8.34867665 16.1356482,10.1875917 16.1356482,12.5881239 L16.1356482,12.5881239 Z" id="path38" fill="#FFFFFF" sketch:type="MSShapeGroup" mask="url(#mask-2)"></path>
                <path d="M32.5650683,5.46031809 L32.5650683,19.7171053 L34.7573484,19.7171053 L34.7573484,17.5395095 C35.3078738,18.5501702 35.8163084,19.2158193 36.2834077,19.5380746 C36.7497515,19.8595749 37.2632586,20.0200555 37.8226338,20.0200555 C38.6312077,20.0200555 39.4532723,19.7656377 40.2885038,19.2575572 L39.4330904,17.0292719 C38.8505113,17.3596159 38.2678243,17.5255968 37.685677,17.5255968 C37.1649389,17.5255968 36.6969762,17.3671654 36.2826522,17.0499791 C35.8677886,16.73193 35.5714266,16.291687 35.39389,15.7288187 C35.1266677,14.8715204 34.9933804,13.9320406 34.9933804,12.9137225 L34.9933804,5.46031809 L32.5650683,5.46031809" id="path40" fill="#FFFFFF" sketch:type="MSShapeGroup" mask="url(#mask-2)"></path>
                <path d="M52.8297105,15.7730371 L57.9249568,15.7730371 C59.6095579,15.7730371 60.8055825,16.0868801 61.5143259,16.7154289 C62.2220979,17.34236 62.5761998,18.2244637 62.5761998,19.36325 C62.5761998,20.1864678 62.3680125,20.8925606 61.9510983,21.4793715 C61.5340761,22.0662902 60.9856014,22.4542261 60.3048106,22.6429633 C59.8650163,22.7584704 59.0535283,22.8177878 57.8709943,22.8177878 L52.8297105,22.8177878 L52.8297105,15.7730371 Z M50.2323879,5.46031809 L50.2323879,25.1429222 L57.6660448,25.1429222 C58.9743114,25.1429222 59.9738047,25.0792908 60.6639849,24.9554792 C61.6315324,24.7937045 62.4425886,24.4861168 63.0973695,24.0345496 C63.751179,23.5811489 64.2773133,22.9472076 64.6765278,22.1319708 C65.0749869,21.3155476 65.2743243,20.4202862 65.2743243,19.4432746 C65.2743243,17.7669647 64.7406353,16.3489552 63.673581,15.1874126 C62.6062029,14.0268406 60.6779073,13.4479027 57.888694,13.4479027 L52.8297105,13.4479027 L52.8297105,5.46031809 L50.2323879,5.46031809 L50.2323879,5.46031809 Z" id="path42" fill="#FFFFFF" sketch:type="MSShapeGroup" mask="url(#mask-2)"></path>
                <path d="M70.3480936,13.9535027 L78.2743201,13.9535027 C78.1671506,15.1474003 77.8640973,16.0426617 77.3649442,16.6413361 C76.5988927,17.5685211 75.6047957,18.0315204 74.38438,18.0315204 C73.2797678,18.0315204 72.3510733,17.6604091 71.597649,16.9214221 C70.8447644,16.1816801 70.4281739,15.1916187 70.3480936,13.9535027 L70.3480936,13.9535027 Z M78.2473389,10.0776388 L80.756163,9.7410287 C80.3627765,8.28843174 79.6347145,7.16105593 78.5718693,6.35977486 C77.5082686,5.55763099 76.1507882,5.15741107 74.4981329,5.15741107 C72.4167996,5.15741107 70.7663029,5.79692818 69.5466427,7.07806549 C68.3275221,8.35836157 67.7174221,10.1551612 67.7174221,12.4684106 C67.7174221,14.8605198 68.3337817,16.7167231 69.5669326,18.0378835 C70.8000834,19.3590439 72.3986682,20.0200555 74.3645218,20.0200555 C76.267563,20.0200555 77.8218986,19.3707995 79.0280682,18.0758466 C80.2338061,16.7803545 80.8375385,14.9586631 80.8375385,12.6087232 C80.8375385,12.4654987 80.832466,12.2506618 80.8236161,11.9649676 L70.2131874,11.9649676 C70.3025492,10.4075083 70.7435307,9.21357834 71.5365635,8.38658587 C72.330028,7.55833155 73.3190525,7.14505102 74.5045005,7.14505102 C75.3868952,7.14505102 76.1393481,7.37802821 76.7633704,7.84481305 C77.3872847,8.31075665 77.8813653,9.05516851 78.2473389,10.0776388 L78.2473389,10.0776388 Z" id="path44" fill="#FFFFFF" sketch:type="MSShapeGroup" mask="url(#mask-2)"></path>
                <path d="M85.6654546,12.5948106 C85.6654546,10.7752978 86.0621868,9.40989738 86.8564068,8.50413139 C87.650303,7.59793401 88.6497962,7.14505102 89.854239,7.14505102 C91.0495082,7.14505102 92.0443607,7.60004786 92.8386885,8.51045139 C93.6320451,9.42169615 94.0296407,10.8097881 94.0296407,12.6745116 C94.0296407,14.433758 93.6304262,15.766674 92.8318893,16.6725047 C92.0330286,17.5782275 91.0406583,18.0315204 89.854239,18.0315204 C88.6497962,18.0315204 87.650303,17.5808159 86.8564068,16.67876 C86.0621868,15.7772433 85.6654546,14.4173648 85.6654546,12.5948106 L85.6654546,12.5948106 Z M83.1696894,12.5881239 C83.1696894,15.2220324 83.9032555,17.1717416 85.3708194,18.4401634 C86.5967393,19.4938562 88.0912844,20.0200555 89.854239,20.0200555 C91.8138329,20.0200555 93.4157634,19.3796432 94.6594909,18.0993579 C95.9031105,16.8170235 96.5254059,15.0472078 96.5254059,12.7886167 C96.5254059,10.9598072 96.2496576,9.51985027 95.699564,8.47042832 C95.1493624,7.42099558 94.3483432,6.60790495 93.2973697,6.02652968 C92.2455328,5.44767809 91.0979665,5.15741107 89.854239,5.15741107 C87.8584902,5.15741107 86.2455514,5.79566634 85.0154224,7.07174549 C83.7847539,8.34867665 83.1696894,10.1875917 83.1696894,12.5881239 L83.1696894,12.5881239 Z" id="path46" fill="#FFFFFF" sketch:type="MSShapeGroup" mask="url(#mask-2)"></path>
                <path d="M101.859706,12.5127369 C101.859706,10.6826116 102.229457,9.33111308 102.969283,8.45652648 C103.709217,7.58277032 104.605426,7.14505102 105.657262,7.14505102 C106.727231,7.14505102 107.642974,7.59793401 108.405248,8.50413139 C109.167199,9.40989738 109.549253,10.8132393 109.549253,12.7132297 C109.549253,14.5243519 109.176912,15.8795928 108.43223,16.7803545 C107.688087,17.6818712 106.798461,18.1326835 105.764324,18.1326835 C104.739037,18.1326835 103.831819,17.6528596 103.043104,16.6939668 C102.253416,15.7343191 101.859706,14.3406836 101.859706,12.5127369 L101.859706,12.5127369 Z M99.6337533,0 L99.6337533,19.7171053 L101.859706,19.7171053 L101.859706,17.8513033 C102.379041,18.5737893 102.965505,19.1163818 103.619315,19.4778944 C104.273664,19.8388678 105.066697,20.0200555 105.998305,20.0200555 C107.216347,20.0200555 108.290848,19.7073988 109.22332,19.0830562 C110.154712,18.4575272 110.857304,17.5761784 111.332174,16.4386863 C111.807044,15.2994686 112.044479,14.0529403 112.044479,12.6959737 C112.044479,11.2400011 111.782221,9.9297659 111.257706,8.76490149 C110.73319,7.60004786 109.97124,6.70733171 108.970775,6.08803643 C107.970311,5.4670587 106.91869,5.15741107 105.815373,5.15741107 C105.008094,5.15741107 104.283809,5.32760888 103.642087,5.66633283 C103.000905,6.00841091 102.473907,6.43770714 102.062065,6.95841689 L102.062065,0 L99.6337533,0 L99.6337533,0 Z" id="path48" fill="#FFFFFF" sketch:type="MSShapeGroup" mask="url(#mask-2)"></path>
                <path d="M115.119261,5.46031809 L117.547574,5.46031809 L117.547574,25.1429115 L115.119261,25.1429115 L115.119261,5.46031809 Z" id="path50" fill="#FFFFFF" sketch:type="MSShapeGroup" mask="url(#mask-2)"></path>
                <path d="M123.385236,13.9535027 L131.311247,13.9535027 C131.204401,15.1474003 130.901132,16.0426617 130.402518,16.6413361 C129.636251,17.5685211 128.642262,18.0315204 127.42163,18.0315204 C126.317558,18.0315204 125.388324,17.6604091 124.635007,16.9214221 C123.881691,16.1816801 123.4651,15.1916187 123.385236,13.9535027 L123.385236,13.9535027 Z M131.285345,10.0776388 L133.793521,9.7410287 C133.399595,8.28843174 132.672181,7.16105593 131.60912,6.35977486 C130.546058,5.55763099 129.188362,5.15741107 127.536031,5.15741107 C125.454158,5.15741107 123.803985,5.79692818 122.584433,7.07806549 C121.36488,8.35836157 120.755104,10.1551612 120.755104,12.4684106 C120.755104,14.8605198 121.371356,16.7167231 122.604938,18.0378835 C123.837442,19.3590439 125.43689,20.0200555 127.402204,20.0200555 C129.304921,20.0200555 130.859041,19.3707995 132.065642,18.0758466 C133.271164,16.7803545 133.874465,14.9586631 133.874465,12.6087232 C133.874465,12.4654987 133.870148,12.2506618 133.860435,11.9649676 L123.25033,11.9649676 C123.339907,10.4075083 123.780241,9.21357834 124.574569,8.38658587 C125.366739,7.55833155 126.356411,7.14505102 127.542506,7.14505102 C128.424253,7.14505102 129.17649,7.37802821 129.801376,7.84481305 C130.425182,8.31075665 130.919479,9.05516851 131.285345,10.0776388 L131.285345,10.0776388 Z" id="path52" fill="#FFFFFF" sketch:type="MSShapeGroup" mask="url(#mask-2)"></path>
                <path d="M148.729259,5.46031809 L143.540226,25.1429222 L146.2254,25.1429222 L149.198733,12.232543 C149.524667,10.8818318 149.803113,9.54260659 150.032993,8.21386437 C150.538082,10.3114572 150.833797,11.5218127 150.922295,11.844068 L154.66945,25.1429222 L157.810067,25.1429222 L160.606404,15.1659505 C161.306837,12.6959737 161.819481,10.379284 162.141097,8.21386437 C162.415226,9.44992045 162.746556,10.8747137 163.136165,12.4878236 L166.218503,25.1429222 L168.835684,25.1429222 L163.436197,5.46031809 L160.911831,5.46031809 L156.806365,20.4472486 C156.463164,21.7014343 156.251631,22.473639 156.171766,22.7673141 C155.945124,21.8555517 155.745463,21.0824841 155.570624,20.4459544 L151.43278,5.46031809 L148.729259,5.46031809" id="path54" fill="#FFFFFF" sketch:type="MSShapeGroup" mask="url(#mask-2)"></path>
                <path d="M171.22838,5.46031809 L171.22838,19.7171053 L173.656693,19.7171053 L173.656693,5.46031809 L171.22838,5.46031809 Z M171.22838,22.378839 L171.22838,25.1429222 L173.656693,25.1429222 L173.656693,22.378839 L171.22838,22.378839 L171.22838,22.378839 Z" id="path56" fill="#FFFFFF" sketch:type="MSShapeGroup" mask="url(#mask-2)"></path>
                <path d="M182.86809,7.61731462 L183.204816,5.48517747 C182.523809,5.34278335 181.912954,5.27073966 181.375487,5.27073966 C180.495899,5.27073966 179.813813,5.40976887 179.330309,5.68571344 C178.844646,5.96418169 178.503604,6.32859547 178.30718,6.78147847 C178.109677,7.23352023 178.011466,8.18352621 178.011466,9.63528194 L178.011466,17.8415968 L176.224228,17.8415968 L176.224228,19.7289688 L178.011466,19.7289688 L178.011466,23.2568445 L180.439778,24.7051598 L180.439778,19.7289688 L182.86809,19.7289688 L182.86809,17.8415968 L180.439778,17.8415968 L180.439778,9.50258352 C180.439778,8.8125064 180.481868,8.36931911 180.567129,8.1738413 C180.65239,7.9754084 180.790534,7.81911243 180.98264,7.70283953 C181.174747,7.58613524 181.449956,7.52884541 181.808266,7.52884541 C182.077,7.52884541 182.429914,7.55833155 182.86809,7.61731462" id="path58" fill="#FFFFFF" sketch:type="MSShapeGroup" mask="url(#mask-2)"></path>
                <path d="M185.513331,5.46031809 L185.513331,25.1429222 L187.941643,25.1429222 L187.941643,18.0517961 C189.061905,19.3645442 190.476801,20.0200555 192.185254,20.0200555 C193.234284,20.0200555 194.14625,19.8119053 194.920073,19.397007 C195.693895,18.9802753 196.24755,18.4069456 196.581038,17.6734589 C196.914526,16.9399723 197.08181,15.8766808 197.08181,14.4830454 L197.08181,5.46031809 L194.653498,5.46031809 L194.653498,14.4746331 C194.653498,15.6803941 194.394478,16.5571054 193.875359,17.1072474 C193.357319,17.656203 192.623429,17.9300337 191.676927,17.9300337 C190.96678,17.9300337 190.300883,17.7455026 189.675998,17.3748228 C189.051112,17.0036037 188.605382,16.5023177 188.339886,15.8678371 C188.074391,15.233788 187.941643,14.3579396 187.941643,13.2427724 L187.941643,5.46031809 L185.513331,5.46031809" id="path60" fill="#FFFFFF" sketch:type="MSShapeGroup" mask="url(#mask-2)"></path>
                <path d="M209.210419,5.46031809 L209.210419,25.1429222 L213.096798,25.1429222 L217.762395,11.2218823 C218.193016,9.92428712 218.507077,8.95363868 218.70458,8.31075665 C218.930143,9.02610298 219.284137,10.0763769 219.764403,11.4623874 L224.536846,25.1429222 L227.962385,25.1429222 L227.962385,5.46031809 L225.46608,5.46031809 L225.46608,21.9410766 L219.693173,5.46031809 L217.385737,5.46031809 L211.705645,22.2107012 L211.705645,5.46031809 L209.210419,5.46031809" id="path62" fill="#FFFFFF" sketch:type="MSShapeGroup" mask="url(#mask-2)"></path>
                <path d="M241.474593,5.46031809 L241.474593,7.58192909 C240.364045,5.96502292 238.853095,5.15741107 236.944981,5.15741107 C236.103167,5.15741107 235.316393,5.31792396 234.585741,5.63937037 C233.856168,5.96206784 233.313306,6.36650469 232.959312,6.85268092 C232.604239,7.33926698 232.35709,7.93664717 232.21355,8.64314982 C232.114259,9.11752728 232.064614,9.8669973 232.064614,10.8949895 L232.064614,19.7171053 L234.492926,19.7171053 L234.492926,11.8281062 C234.492926,10.5680212 234.542571,9.71954501 234.640783,9.28266694 C234.792957,8.64862859 235.114574,8.15024376 235.605632,7.78878506 C236.096691,7.4277362 236.703229,7.24658084 237.427406,7.24658084 C238.150503,7.24658084 238.829352,7.43195312 239.46395,7.80310752 C240.09747,8.1738413 240.546438,8.67643227 240.809775,9.31510816 C241.073112,9.95336344 241.20478,10.8797827 241.20478,12.0951424 L241.20478,19.7171053 L243.633093,19.7171053 L243.633093,5.46031809 L241.474593,5.46031809" id="path64" fill="#FFFFFF" sketch:type="MSShapeGroup" mask="url(#mask-2)"></path>
                <path d="M247.618762,5.46031809 L250.047074,5.46031809 L250.047074,25.1429115 L247.618762,25.1429115 L247.618762,5.46031809 Z" id="path66" fill="#FFFFFF" sketch:type="MSShapeGroup" mask="url(#mask-2)"></path>
                <path d="M259.325385,7.61731462 L259.66319,5.48517747 C258.981104,5.34278335 258.370249,5.27073966 257.831703,5.27073966 C256.953194,5.27073966 256.271108,5.40976887 255.787604,5.68571344 C255.303021,5.96418169 254.960899,6.32859547 254.764475,6.78147847 C254.566972,7.23352023 254.468761,8.18352621 254.468761,9.63528194 L254.468761,17.8415968 L252.681523,17.8415968 L252.681523,19.7289688 L254.468761,19.7289688 L254.468761,23.2568445 L256.897073,24.7051598 L256.897073,19.7289688 L259.325385,19.7289688 L259.325385,17.8415968 L256.897073,17.8415968 L256.897073,9.50258352 C256.897073,8.8125064 256.939164,8.36931911 257.024424,8.1738413 C257.108606,7.9754084 257.247829,7.81911243 257.439935,7.70283953 C257.632042,7.58613524 257.907251,7.52884541 258.265562,7.52884541 C258.534295,7.52884541 258.887209,7.55833155 259.325385,7.61731462" id="path68" fill="#FFFFFF" sketch:type="MSShapeGroup" mask="url(#mask-2)"></path>
                <path d="M261.970626,5.46031809 L261.970626,19.7171053 L264.398938,19.7171053 L264.398938,5.46031809 L261.970626,5.46031809 Z M261.970626,22.378839 L261.970626,25.1429222 L264.398938,25.1429222 L264.398938,22.378839 L261.970626,22.378839 L261.970626,22.378839 Z" id="path70" fill="#FFFFFF" sketch:type="MSShapeGroup" mask="url(#mask-2)"></path>
                <path d="M270.575485,12.5127369 C270.575485,10.6826116 270.945668,9.33111308 271.684954,8.45652648 C272.425319,7.58277032 273.321097,7.14505102 274.373365,7.14505102 C275.442902,7.14505102 276.358106,7.59793401 277.121135,8.50413139 C277.884165,9.40989738 278.26514,10.8132393 278.26514,12.7132297 C278.26514,14.5243519 277.89172,15.8795928 277.148116,16.7803545 C276.403434,17.6818712 275.514132,18.1326835 274.480211,18.1326835 C273.454924,18.1326835 272.547274,17.6528596 271.759422,16.6939668 C270.969411,15.7343191 270.575485,14.3406836 270.575485,12.5127369 L270.575485,12.5127369 Z M268.350072,0 L268.350072,19.7171053 L270.575485,19.7171053 L270.575485,17.8513033 C271.094604,18.5737893 271.680637,19.1163818 272.335742,19.4778944 C272.988688,19.8388678 273.783016,20.0200555 274.714408,20.0200555 C275.931802,20.0200555 277.006735,19.7073988 277.938127,19.0830562 C278.870599,18.4575272 279.573191,17.5761784 280.048061,16.4386863 C280.522931,15.2994686 280.761445,14.0529403 280.761445,12.6959737 C280.761445,11.2400011 280.498108,9.9297659 279.973593,8.76490149 C279.449077,7.60004786 278.687127,6.70733171 277.686662,6.08803643 C276.686198,5.4670587 275.635008,5.15741107 274.530936,5.15741107 C273.723657,5.15741107 272.99948,5.32760888 272.357327,5.66633283 C271.717331,6.00841091 271.189578,6.43770714 270.778384,6.95841689 L270.778384,0 L268.350072,0 L268.350072,0 Z" id="path72" fill="#FFFFFF" sketch:type="MSShapeGroup" mask="url(#mask-2)"></path>
                <path d="M283.834069,5.46031809 L286.262381,5.46031809 L286.262381,25.1429115 L283.834069,25.1429115 L283.834069,5.46031809 Z" id="path74" fill="#FFFFFF" sketch:type="MSShapeGroup" mask="url(#mask-2)"></path>
                <path d="M292.101123,13.9535027 L300.027133,13.9535027 C299.919208,15.1474003 299.617019,16.0426617 299.117326,16.6413361 C298.351058,17.5685211 297.357069,18.0315204 296.137517,18.0315204 C295.032365,18.0315204 294.10421,17.6604091 293.350894,16.9214221 C292.597578,16.1816801 292.182067,15.1916187 292.101123,13.9535027 L292.101123,13.9535027 Z M300.000152,10.0776388 L302.509408,9.7410287 C302.116561,8.28843174 301.388067,7.16105593 300.323927,6.35977486 C299.260866,5.55763099 297.90317,5.15741107 296.250838,5.15741107 C294.168965,5.15741107 292.518792,5.79692818 291.29924,7.07806549 C290.079688,8.35836157 289.470991,10.1551612 289.470991,12.4684106 C289.470991,14.8605198 290.086163,16.7167231 291.319746,18.0378835 C292.552249,19.3590439 294.151697,20.0200555 296.117011,20.0200555 C298.020808,20.0200555 299.574928,19.3707995 300.78045,18.0758466 C301.987051,16.7803545 302.590352,14.9586631 302.590352,12.6087232 C302.590352,12.4654987 302.584956,12.2506618 302.576322,11.9649676 L291.966217,11.9649676 C292.054715,10.4075083 292.497207,9.21357834 293.289377,8.38658587 C294.082625,7.55833155 295.071218,7.14505102 296.257314,7.14505102 C297.139061,7.14505102 297.892377,7.37802821 298.516184,7.84481305 C299.13999,8.31075665 299.634287,9.05516851 300.000152,10.0776388 L300.000152,10.0776388 Z" id="path76" fill="#FFFFFF" sketch:type="MSShapeGroup" mask="url(#mask-2)"></path>
                <path d="M316.641105,7.78582998 L320.848021,7.78582998 C322.147438,7.78582998 323.167329,7.9063198 323.905536,8.14814068 C324.644822,8.38954095 325.234092,8.72951596 325.673347,9.16723527 C326.291757,9.7852687 326.773103,10.6147849 327.118462,11.6574878 C327.462743,12.7006113 327.635423,13.9643956 327.635423,15.4494877 C327.635423,17.5070467 327.297618,19.0894193 326.620928,20.192723 C325.944239,21.2990466 325.12185,22.0380336 324.154842,22.415508 C323.455489,22.6829755 322.33091,22.8177878 320.781108,22.8177878 L316.641105,22.8177878 L316.641105,7.78582998 Z M314.043351,5.46031809 L314.043351,25.1429222 L320.830753,25.1429222 C322.363288,25.1429222 323.532115,25.0481222 324.339394,24.8606792 C325.46829,24.6015161 326.43098,24.1313987 327.228546,23.451837 C328.267864,22.5730766 329.046003,21.452409 329.560805,20.0870302 C330.076686,18.7229456 330.333548,17.1640842 330.333548,15.4094754 C330.333548,13.9139218 330.158709,12.5881239 329.810112,11.4342386 C329.460435,10.2802778 329.012546,9.32353123 328.466446,8.56774122 C327.919266,7.81153059 327.320282,7.21625347 326.671653,6.78274031 C326.021945,6.34797609 325.23733,6.01894784 324.318888,5.79566634 C323.400447,5.57154361 322.34602,5.46031809 321.153449,5.46031809 L314.043351,5.46031809 L314.043351,5.46031809 Z" id="path78" fill="#FFFFFF" sketch:type="MSShapeGroup" mask="url(#mask-2)"></path>
                <path d="M333.854061,5.46031809 L333.854061,19.7171053 L336.282373,19.7171053 L336.282373,5.46031809 L333.854061,5.46031809 Z M333.854061,22.378839 L333.854061,25.1429222 L336.282373,25.1429222 L336.282373,22.378839 L333.854061,22.378839 L333.854061,22.378839 Z" id="path80" fill="#FFFFFF" sketch:type="MSShapeGroup" mask="url(#mask-2)"></path>
                <path d="M339.254627,9.7410287 L341.649482,10.1109212 C341.783309,9.15417465 342.156729,8.41986832 342.771902,7.90968472 C343.385995,7.40077374 344.245078,7.14505102 345.348071,7.14505102 C346.460778,7.14505102 347.284245,7.37043558 347.822791,7.81911243 C348.360257,8.26989235 348.63007,8.79734272 348.63007,9.40357738 C348.63007,9.94704344 348.394793,10.375067 347.922082,10.6868178 C347.592911,10.8991956 346.767285,11.1708693 345.443045,11.5012134 C343.660124,11.9477116 342.426542,12.3335983 341.743377,12.6593048 C341.060212,12.9849034 340.541093,13.4348529 340.188178,14.012928 C339.835263,14.5879833 339.659345,15.2240815 339.659345,15.9208993 C339.659345,16.5549484 339.805044,17.1426221 340.096442,17.6818712 C340.387839,18.2232774 340.785003,18.6719326 341.287933,19.0291313 C341.663512,19.3064132 342.178314,19.5402316 342.828023,19.7310179 C343.478811,19.9230985 344.174927,20.0200555 344.920688,20.0200555 C346.042029,20.0200555 347.026305,19.8582807 347.874595,19.5360255 C348.721806,19.212476 349.347771,18.7755763 349.75141,18.2232774 C350.15505,17.6714098 350.433496,16.933717 350.58675,16.0093361 L348.225351,15.6727368 C348.117426,16.413773 347.804444,16.9905538 347.286404,17.4080405 C346.769443,17.8234781 346.037712,18.0315204 345.092289,18.0315204 C343.976345,18.0315204 343.178779,17.8478521 342.701751,17.4834275 C342.224722,17.119003 341.986208,16.6919177 341.986208,16.2010931 C341.986208,15.8892993 342.085499,15.6091054 342.283002,15.3610508 C342.481584,15.1011327 342.791328,14.8887764 343.215474,14.7193443 C343.457226,14.6296133 344.172768,14.4249143 345.362101,14.105571 C347.082426,13.6493662 348.279314,13.2765294 348.956003,12.9861976 C349.632693,12.6959737 350.162605,12.2734181 350.548976,11.7211192 C350.933189,11.1666632 351.126375,10.4787107 351.126375,9.65803826 C351.126375,8.8533707 350.890019,8.09758068 350.419466,7.38771313 C349.947834,6.67826618 349.267907,6.12805951 348.379684,5.73963835 C347.491461,5.35036519 346.48668,5.15741107 345.365339,5.15741107 C343.506871,5.15741107 342.091975,5.5424673 341.117412,6.31343179 C340.143929,7.08354426 339.52336,8.22565235 339.254627,9.7410287" id="path82" fill="#FFFFFF" sketch:type="MSShapeGroup" mask="url(#mask-2)"></path>
                <path d="M363.348879,12.6053799 C362.467132,12.2493676 361.143972,11.9465253 359.379398,11.6962059 C358.380013,11.5538441 357.673104,11.3933635 357.258672,11.2150878 C356.84532,11.0360571 356.525862,10.7765596 356.300298,10.4332089 C356.075814,10.0902788 355.962493,9.70858747 355.962493,9.29024878 C355.962493,8.64862859 356.209641,8.11359638 356.703938,7.68556199 C357.198234,7.25837961 357.921332,7.04478303 358.87323,7.04478303 C359.817574,7.04478303 360.655071,7.24658084 361.390041,7.65185892 C362.12393,8.05755761 362.663555,8.61198122 363.008915,9.31721123 C363.271173,9.8606773 363.402841,10.6619692 363.402841,11.7231683 L363.348879,12.6053799 Z M363.550699,7.24658084 C362.681903,6.48194714 361.829295,5.94269801 360.995035,5.62883344 C360.160775,5.31496888 359.266077,5.15741107 358.309862,5.15741107 C356.731998,5.15741107 355.518922,5.53826116 354.67171,6.30079179 C353.82342,7.0629018 353.399275,8.03691516 353.399275,9.22242202 C353.399275,9.91796712 353.560083,10.5541193 353.88062,11.1291315 C354.200078,11.7038632 354.619906,12.1655683 355.140105,12.5127369 C355.658145,12.8597976 356.242019,13.1231669 356.892807,13.3021976 C357.369835,13.4273034 358.091853,13.5469089 359.057782,13.662416 C361.025254,13.8945089 362.472528,14.1712515 363.402841,14.4927519 C363.412555,14.825145 363.415792,15.0353443 363.415792,15.124644 C363.415792,16.1125484 363.185912,16.807317 362.722914,17.2095968 C362.096949,17.7572583 361.166636,18.0315204 359.934133,18.0315204 C358.782573,18.0315204 357.931045,17.8318903 357.382786,17.4307968 C356.834527,17.0292719 356.428729,16.3186494 356.165392,15.3016256 L353.803994,15.6382249 C354.018764,16.6475914 354.374917,17.4632596 354.868134,18.0842589 C355.361351,18.7043954 356.073656,19.1833565 357.006128,19.5174753 C357.9386,19.8527804 359.018929,20.0200555 360.248194,20.0200555 C361.467747,20.0200555 362.459577,19.8768309 363.221528,19.5919995 C363.983478,19.3064132 364.543609,18.9461947 364.902999,18.5135012 C365.26131,18.0800528 365.512775,17.5331463 365.656315,16.8729975 C365.737259,16.4623054 365.777191,15.7212692 365.777191,14.6494577 L365.777191,11.435425 C365.777191,9.19419772 365.826837,7.77487243 365.927207,7.17749224 C366.026498,6.5809425 366.224001,6.00841091 366.518636,5.46031809 L364.02341,5.46031809 C363.77842,5.96966047 363.62085,6.56367574 363.550699,7.24658084 L363.550699,7.24658084 Z" id="path84" fill="#FFFFFF" sketch:type="MSShapeGroup" mask="url(#mask-2)"></path>
                <path d="M371.920281,12.6959737 C371.920281,10.99227 372.153399,9.76167116 372.619635,9.00419868 C373.381585,7.76518752 374.412269,7.14505102 375.711686,7.14505102 C376.769351,7.14505102 377.682396,7.60215094 378.45406,8.51677139 C379.224644,9.43053983 379.609936,10.7913458 379.609936,12.6011737 C379.609936,14.4573771 379.240833,15.8248051 378.500467,16.7083108 C377.761181,17.5905224 376.867562,18.0315204 375.819611,18.0315204 C374.760867,18.0315204 373.847821,17.5740214 373.077237,16.6606412 C372.305573,15.7460747 371.920281,14.4249143 371.920281,12.6959737 L371.920281,12.6959737 Z M371.988274,5.46031809 L369.728325,5.46031809 L369.728325,25.1429222 L372.156637,25.1429222 L372.156637,18.0993579 C373.176528,19.3796432 374.479182,20.0200555 376.063521,20.0200555 C376.940951,20.0200555 377.770894,19.8430739 378.55443,19.4916992 C379.336886,19.1378439 379.981198,18.6428132 380.487366,18.0045579 C380.993534,17.3659791 381.389619,16.5971177 381.67562,15.6954931 C381.962701,14.7939764 382.106241,13.8295833 382.106241,12.8038236 C382.106241,10.366644 381.501861,8.48221631 380.29418,7.15137102 C379.0865,5.82178757 377.637067,5.15741107 375.946962,5.15741107 C374.264412,5.15741107 372.945568,5.86053801 371.988274,7.26680269 L371.988274,5.46031809 L371.988274,5.46031809 Z" id="path86" fill="#FFFFFF" sketch:type="MSShapeGroup" mask="url(#mask-2)"></path>
                <path d="M385.349387,5.46031809 L385.349387,19.7171053 L387.777699,19.7171053 L387.777699,5.46031809 L385.349387,5.46031809 Z M385.349387,22.378839 L385.349387,25.1429222 L387.777699,25.1429222 L387.777699,22.378839 L385.349387,22.378839 L385.349387,22.378839 Z" id="path88" fill="#FFFFFF" sketch:type="MSShapeGroup" mask="url(#mask-2)"></path>
                <path d="M391.658681,5.46031809 L394.086993,5.46031809 L394.086993,25.1429115 L391.658681,25.1429115 L391.658681,5.46031809 Z" id="path90" fill="#FFFFFF" sketch:type="MSShapeGroup" mask="url(#mask-2)"></path>
                <path d="M398.10504,5.46031809 L398.10504,19.7171053 L400.533352,19.7171053 L400.533352,5.46031809 L398.10504,5.46031809 Z M398.10504,22.378839 L398.10504,25.1429222 L400.533352,25.1429222 L400.533352,22.378839 L398.10504,22.378839 L398.10504,22.378839 Z" id="path92" fill="#FFFFFF" sketch:type="MSShapeGroup" mask="url(#mask-2)"></path>
                <path d="M409.74367,7.61731462 L410.081476,5.48517747 C409.39939,5.34278335 408.788534,5.27073966 408.251068,5.27073966 C407.372558,5.27073966 406.690473,5.40976887 406.205889,5.68571344 C405.721306,5.96418169 405.380263,6.32859547 405.18384,6.78147847 C404.986337,7.23352023 404.887046,8.18352621 404.887046,9.63528194 L404.887046,17.8415968 L403.099808,17.8415968 L403.099808,19.7289688 L404.887046,19.7289688 L404.887046,23.2568445 L407.315358,24.7051598 L407.315358,19.7289688 L409.74367,19.7289688 L409.74367,17.8415968 L407.315358,17.8415968 L407.315358,9.50258352 C407.315358,8.8125064 407.357449,8.36931911 407.44271,8.1738413 C407.52905,7.9754084 407.666114,7.81911243 407.8593,7.70283953 C408.051407,7.58613524 408.326615,7.52884541 408.684926,7.52884541 C408.95258,7.52884541 409.305495,7.55833155 409.74367,7.61731462" id="path94" fill="#FFFFFF" sketch:type="MSShapeGroup" mask="url(#mask-2)"></path>
                <path d="M412.389991,5.46031809 L412.389991,19.7171053 L414.818303,19.7171053 L414.818303,5.46031809 L412.389991,5.46031809 Z M412.389991,22.378839 L412.389991,25.1429222 L414.818303,25.1429222 L414.818303,22.378839 L412.389991,22.378839 L412.389991,22.378839 Z" id="path96" fill="#FFFFFF" sketch:type="MSShapeGroup" mask="url(#mask-2)"></path>
                <path d="M420.589052,13.9535027 L428.515062,13.9535027 C428.408217,15.1474003 428.104948,16.0426617 427.606334,16.6413361 C426.840067,17.5685211 425.846078,18.0315204 424.625446,18.0315204 C423.521374,18.0315204 422.592139,17.6604091 421.838823,16.9214221 C421.085507,16.1816801 420.668916,15.1916187 420.589052,13.9535027 L420.589052,13.9535027 Z M428.488081,10.0776388 L430.997337,9.7410287 C430.603411,8.28843174 429.875997,7.16105593 428.812935,6.35977486 C427.749874,5.55763099 426.392178,5.15741107 424.739847,5.15741107 C422.657974,5.15741107 421.007801,5.79692818 419.788248,7.07806549 C418.568696,8.35836157 417.95892,10.1551612 417.95892,12.4684106 C417.95892,14.8605198 418.575172,16.7167231 419.807675,18.0378835 C421.041257,19.3590439 422.639626,20.0200555 424.60602,20.0200555 C426.507658,20.0200555 428.062857,19.3707995 429.269458,18.0758466 C430.47498,16.7803545 431.078281,14.9586631 431.078281,12.6087232 C431.078281,12.4654987 431.073964,12.2506618 431.064251,11.9649676 L420.454146,11.9649676 C420.543723,10.4075083 420.984057,9.21357834 421.778385,8.38658587 C422.570554,7.55833155 423.560227,7.14505102 424.746322,7.14505102 C425.628069,7.14505102 426.380306,7.37802821 427.004113,7.84481305 C427.628998,8.31075665 428.123295,9.05516851 428.488081,10.0776388 L428.488081,10.0776388 Z" id="path98" fill="#FFFFFF" sketch:type="MSShapeGroup" mask="url(#mask-2)"></path>
                <path d="M433.342547,9.7410287 L435.737402,10.1109212 C435.872309,9.15417465 436.246808,8.41986832 436.860901,7.90968472 C437.476074,7.40077374 438.332998,7.14505102 439.437071,7.14505102 C440.548698,7.14505102 441.374324,7.37043558 441.911791,7.81911243 C442.450336,8.26989235 442.719069,8.79734272 442.719069,9.40357738 C442.719069,9.94704344 442.482714,10.375067 442.012161,10.6868178 C441.68191,10.8991956 440.855205,11.1708693 439.533124,11.5012134 C437.749124,11.9477116 436.516621,12.3335983 435.832376,12.6593048 C435.148132,12.9849034 434.631171,13.4348529 434.278257,14.012928 C433.925342,14.5879833 433.747266,15.2240815 433.747266,15.9208993 C433.747266,16.5549484 433.892964,17.1426221 434.185441,17.6818712 C434.476839,18.2232774 434.872923,18.6719326 435.375854,19.0291313 C435.753591,19.3064132 436.266235,19.5402316 436.917022,19.7310179 C437.56781,19.9230985 438.265005,20.0200555 439.009688,20.0200555 C440.132108,20.0200555 441.116383,19.8582807 441.963595,19.5360255 C442.811885,19.212476 443.43785,18.7755763 443.841489,18.2232774 C444.245129,17.6714098 444.522496,16.933717 444.67467,16.0093361 L442.314351,15.6727368 C442.205346,16.413773 441.892364,16.9905538 441.375403,17.4080405 C440.857363,17.8234781 440.126711,18.0315204 439.181288,18.0315204 C438.064265,18.0315204 437.267779,17.8478521 436.79075,17.4834275 C436.312642,17.119003 436.075207,16.6919177 436.075207,16.2010931 C436.075207,15.8892993 436.174498,15.6091054 436.372001,15.3610508 C436.570583,15.1011327 436.881407,14.8887764 437.303394,14.7193443 C437.547304,14.6296133 438.262847,14.4249143 439.45218,14.105571 C441.170346,13.6493662 442.369392,13.2765294 443.046082,12.9861976 C443.721692,12.6959737 444.252683,12.2734181 444.636896,11.7211192 C445.022189,11.1666632 445.214295,10.4787107 445.214295,9.65803826 C445.214295,8.8533707 444.980098,8.09758068 444.508466,7.38771313 C444.037913,6.67826618 443.357985,6.12805951 442.469763,5.73963835 C441.580461,5.35036519 440.575679,5.15741107 439.454339,5.15741107 C437.59695,5.15741107 436.180974,5.5424673 435.207491,6.31343179 C434.234007,7.08354426 433.61128,8.22565235 433.342547,9.7410287" id="path100" fill="#FFFFFF" sketch:type="MSShapeGroup" mask="url(#mask-2)"></path>
            </g>
        </g>
    </g>
</svg>