<?xml version="1.0" encoding="UTF-8" standalone="no"?>
<svg width="98px" height="43px" viewBox="0 0 98 43" version="1.1" xmlns="http://www.w3.org/2000/svg" xmlns:xlink="http://www.w3.org/1999/xlink" xmlns:sketch="http://www.bohemiancoding.com/sketch/ns">
    <!-- Generator: Sketch 3.3.3 (12081) - http://www.bohemiancoding.com/sketch -->
    <title>Parity_Logo_cmyk Copy</title>
    <desc>Created with Sketch.</desc>
    <defs>
        <path id="path-1" d="M0,0 L97.9573115,0 L97.9573115,55.1874389 L0,55.1874389 L0,0 Z"></path>
    </defs>
    <g id="Main-Page" stroke="none" stroke-width="1" fill="none" fill-rule="evenodd" sketch:type="MSPage">
        <g id="NavBar-Open" sketch:type="MSArtboardGroup" transform="translate(-12.000000, -1.000000)">
            <g id="Navbar-Open" sketch:type="MSLayerGroup" transform="translate(-5.000000, 0.000000)">
                <g id="Parity_Logo_cmyk-Copy" transform="translate(66.000000, 28.446154) scale(1, -1) translate(-66.000000, -28.446154) translate(17.000000, 0.446154)">
                    <mask id="mask-2" sketch:name="path18" fill="white">
                        <use xlink:href="#path-1"></use>
                    </mask>
                    <g id="path18"></g>
                    <path d="M3.49510796,27.7409194 C3.69056252,27.7273549 3.91658502,27.7165536 4.17132573,27.7092689 C4.42609015,27.7022355 4.80125287,27.6992212 5.29871106,27.6992212 C8.17314051,27.6992212 10.328761,28.2448157 11.76645,29.3360047 C13.2032142,30.4271938 13.9229717,32.0697548 13.9229717,34.2656974 C13.9229717,36.4606353 13.3217865,38.0416537 12.1203172,39.0085014 C10.917923,39.9745956 8.93923607,40.4586475 6.18428006,40.4586475 C5.66182684,40.4586475 4.87813515,40.4101669 3.8332287,40.3139594 L3.73502713,40.2928591 C3.73502713,39.3955922 3.69056252,37.9760919 3.6044079,36.0358653 C3.51825327,34.0958899 3.47563839,32.6010313 3.47563839,31.5515405 L3.49510796,27.7409194 Z M0.0194532544,12.84536 C0.08615012,15.1874475 0.141730881,17.5737956 0.188974587,19.9996063 C0.235292006,22.4250905 0.259376884,24.8800398 0.259376884,27.3621181 C0.259376884,29.969015 0.235292006,32.4852306 0.188974587,34.9112674 C0.141730881,37.3373042 0.0796658758,39.6937601 0,41.9821423 C0.339968098,41.9188413 0.672527799,41.8713655 1.0004537,41.8392126 C1.32837959,41.8073109 1.65630786,41.7917368 1.98423376,41.7917368 C2.61228983,41.7917368 3.66926694,41.8442365 5.15604488,41.950743 C6.64189796,42.0557423 7.8239214,42.1092467 8.70116663,42.1092467 C11.5681972,42.1092467 13.7849536,41.4606624 15.3504872,40.1642475 C16.9150723,38.8665765 17.6978391,37.0328564 17.6978391,34.6610776 C17.6978391,31.9009521 16.736289,29.7755952 14.8141373,28.2847556 C12.8919619,26.7936649 10.1453297,26.0488731 6.5752129,26.0488731 C6.20837395,26.0488731 5.76742732,26.0586697 5.25052328,26.0812772 C4.73361924,26.1008703 4.14910528,26.1332744 3.49510796,26.1754751 L3.47563839,20.0731812 C3.47563839,19.2007826 3.49510796,18.1676446 3.53492453,16.9762289 C3.57476482,15.7850142 3.63497583,14.4203246 3.71558127,12.8837174 C3.26628715,12.946516 2.92354209,12.987737 2.68732238,13.0073553 C2.4501778,13.0259186 2.2324933,13.0357152 2.0351819,13.0357152 C1.73226764,13.0357152 1.41175014,13.019915 1.07641348,12.987737 C0.740149576,12.9563377 0.388139276,12.9091382 0.0194532544,12.84536 L0.0194532544,12.84536 Z" id="path22" fill="#FFFFFF" sketch:type="MSShapeGroup" mask="url(#mask-2)"></path>
                    <path d="M20.472241,23.5103262 C20.5889636,23.5103262 20.9215351,23.4984699 21.4699319,23.4778468 C22.0183288,23.4562692 22.5037163,23.4454678 22.926142,23.4454678 C23.2531406,23.4454678 23.901565,23.4562692 24.8724349,23.4778468 C25.8440163,23.4984699 26.6462764,23.5103262 27.2789781,23.5103262 L26.7250084,25.0174934 C26.6408221,25.2628854 26.4157719,25.8466615 26.0515178,26.768043 C25.6875009,27.6894246 24.9836558,29.441004 23.9395082,32.0222791 L20.472241,23.5103262 Z M14.4491481,12.84536 C16.4732008,17.5346595 18.2981232,21.8177272 19.9229193,25.6916744 C21.5477391,29.5660989 23.0613855,33.239819 24.4647834,36.713337 L25.0789879,36.713337 C26.5869903,32.7015091 28.1248729,28.7060088 29.6921614,24.7291221 C31.2594499,20.7501505 32.8509272,16.7888127 34.4646961,12.84536 C34.1803597,12.9014015 33.9078806,12.946516 33.6496301,12.9817586 C33.3911425,13.0181567 33.1355007,13.0357152 32.8824674,13.0357152 C32.6287227,13.0357152 32.3673894,13.019915 32.0987046,12.987737 C31.8293083,12.9563377 31.5421263,12.9091382 31.2364469,12.84536 C30.8565413,14.0925157 30.4341868,15.3660469 29.9691463,16.6632154 C29.5050543,17.9613888 29.0084736,19.2791804 28.4815383,20.6167913 L27.9285171,21.9835407 C27.4523308,22.0051435 26.9427071,22.0217223 26.3998832,22.0324986 C25.8570592,22.0443801 25.0363019,22.0503585 23.9395082,22.0503585 C22.8205415,22.0503585 21.9868123,22.0443801 21.4384154,22.0324986 C20.8890937,22.0217223 20.3823869,22.0051435 19.918295,21.9835407 C19.4013909,20.7245286 18.8780128,19.3685805 18.3462873,17.9154704 C17.8145617,16.4612801 17.2272494,14.7715196 16.5843742,12.84536 C16.404666,12.9091382 16.2258827,12.9563377 16.0461746,12.987737 C15.8664427,13.019915 15.6876594,13.0357152 15.5088761,13.0357152 C15.3504872,13.0357152 15.1818774,13.019915 15.0021693,12.987737 C14.8224611,12.9563377 14.6381286,12.9091382 14.4491481,12.84536 L14.4491481,12.84536 Z" id="path24" fill="#FFFFFF" sketch:type="MSShapeGroup" mask="url(#mask-2)"></path>
                    <path d="M40.3748133,25.3374902 C40.5109343,25.3148826 40.6555925,25.3010669 40.8083136,25.2952895 C40.9603232,25.2892608 41.1687733,25.2872512 41.4317667,25.2872512 C43.8513528,25.2872512 45.6586316,25.7062437 46.8536032,26.5424703 C48.0466776,27.3799529 48.6442819,28.6467269 48.6442819,30.344802 C48.6442819,31.8841221 48.1782928,33.0456456 47.2456032,33.8271118 C46.3126764,34.608578 44.9249063,34.9996879 43.0825301,34.9996879 C42.7453105,34.9996879 42.0810685,34.9657766 41.0917013,34.8994612 C40.8592996,34.8874039 40.6804926,34.8766025 40.5545689,34.8658012 C40.4943341,34.3521084 40.449751,33.8102817 40.4191593,33.2408237 C40.3895162,32.6716169 40.3748133,32.0456402 40.3748133,31.3651542 L40.3748133,25.3374902 Z M37.5577728,12.84536 C37.6180075,14.050315 37.6623536,15.4288455 37.6929452,16.980248 C37.7225883,18.5315752 37.7375284,21.0493232 37.7375284,24.5328638 C37.7375284,27.4902273 37.7225883,29.8650204 37.6929452,31.6560374 C37.6623536,33.4473056 37.6123161,34.9853698 37.5421213,36.2694762 C37.6263076,36.2581725 37.7308883,36.2531486 37.8579978,36.2531486 C38.4451678,36.2212469 38.8388278,36.2056728 39.0389779,36.2056728 C39.4383293,36.2056728 40.2109464,36.2267732 41.356829,36.2694762 C42.501763,36.3106721 43.4474956,36.3325261 44.1940267,36.3325261 C46.6323473,36.3325261 48.4524319,35.8705793 49.6559407,34.948193 C50.8592123,34.0242995 51.4613224,32.6289139 51.4613224,30.7612825 C51.4613224,29.138817 50.8990526,27.7738259 49.776173,26.6670628 C48.6535305,25.5590437 47.0547018,24.8037018 44.9787381,24.4012881 C46.5211265,22.2407137 49.2565892,18.607235 53.1870235,13.4969083 C53.4085165,13.2075322 53.5723834,12.9894954 53.6788613,12.84536 C53.3176901,12.9091382 52.979522,12.9563377 52.6610368,12.987737 C52.3423145,13.019915 52.0309436,13.0357152 51.7233671,13.0357152 C51.4259878,13.0357152 51.1231542,13.0181567 50.8155777,12.9817586 C50.5089497,12.946516 50.1802673,12.9014015 49.8309534,12.84536 C48.9981016,14.1317523 48.258922,15.2532856 47.6105687,16.2100856 C46.9629268,17.1656045 46.3589196,18.031246 45.8004441,18.8024132 L42.2617727,23.5849059 C42.0829657,23.8509209 41.8939614,24.0420548 41.69476,24.1599153 C41.4955586,24.2766705 41.2593625,24.3344704 40.9880692,24.3344704 C40.8611968,24.3344704 40.6833384,24.3178915 40.4535453,24.2855126 C40.4108592,24.2737315 40.3850105,24.2679541 40.3748133,24.2679541 L40.3748133,18.0194901 C40.3748133,17.2482224 40.3888048,16.432644 40.4184479,15.574061 C40.4488024,14.7146994 40.4876941,13.8058776 40.5386802,12.84536 C40.2571896,12.9091382 39.9968048,12.9563377 39.7577631,12.987737 C39.5180099,13.019915 39.2844225,13.0357152 39.055578,13.0357152 C38.8269706,13.0357152 38.5869803,13.019915 38.3377413,12.987737 C38.0875538,12.9563377 37.8274062,12.9091382 37.5577728,12.84536 L37.5577728,12.84536 Z" id="path26" fill="#FFFFFF" sketch:type="MSShapeGroup" mask="url(#mask-2)"></path>
                    <path d="M56.8627645,12.84536 C56.9267935,13.9611158 56.9730367,15.2032477 57.0007826,16.5690175 C57.0285285,17.937048 57.0434686,19.6414532 57.0434686,21.6833884 L57.0434686,24.5328638 C57.0434686,28.1825194 57.0285285,30.7690695 57.0007826,32.2928156 C56.9730367,33.8163104 56.9267935,35.1413616 56.8627645,36.2694762 C57.0823603,36.2267732 57.3102563,36.1948715 57.5455037,36.1737711 C57.7807511,36.1521684 58.0392387,36.1423718 58.3219151,36.1423718 C58.6043543,36.1423718 58.8682962,36.1521684 59.1137408,36.1737711 C59.3594226,36.1948715 59.6084244,36.2267732 59.8595605,36.2694762 C59.7891286,35.499565 59.7419368,34.6007909 59.7167995,33.5744101 C59.6918993,32.5475268 59.6798049,31.2038873 59.6798049,29.5414819 L59.6798049,18.8692309 C59.6798049,17.0626901 59.6918993,15.7587393 59.7167995,14.9618748 C59.7419368,14.1651109 59.7891286,13.4587268 59.8595605,12.84536 C59.6288188,12.8875606 59.3935714,12.91896 59.1535811,12.9405376 C58.9128793,12.9611355 58.6562889,12.9719369 58.3847584,12.9719369 C58.1023192,12.9719369 57.8364801,12.9611355 57.585344,12.9405376 C57.334445,12.91896 57.0935061,12.8875606 56.8627645,12.84536" id="path28" fill="#FFFFFF" sketch:type="MSShapeGroup" mask="url(#mask-2)"></path>
                    <path d="M70.0743261,12.84536 C70.1345609,15.6703188 70.1800926,18.4246166 70.2097357,21.1093587 C70.2393788,23.7929201 70.2540817,26.4030574 70.2540817,28.9381126 L70.2540817,34.682178 L69.393484,34.682178 C68.1050775,34.682178 66.9618035,34.643494 65.9641363,34.5658749 C64.9655205,34.4890094 64.1189143,34.3794886 63.4221835,34.2378148 C63.4435265,34.4621316 63.4594152,34.6465083 63.470561,34.7922012 C63.4807582,34.9368892 63.4862126,35.0717807 63.4862126,35.194866 C63.4862126,35.3287527 63.4807582,35.4764551 63.470561,35.6394803 C63.4594152,35.801752 63.4435265,36.0112482 63.4221835,36.2694762 C64.6569954,36.2267732 65.9140988,36.1948715 67.1961024,36.1737711 C68.4773945,36.1521684 69.7982898,36.1423718 71.159974,36.1423718 C72.5413412,36.1423718 73.9464228,36.1541779 75.3768789,36.180051 C76.8052007,36.2056728 78.2743114,36.235565 79.7834995,36.2694762 C79.7612079,36.1669889 79.7453192,36.0481738 79.735122,35.9132824 C79.7242134,35.7781397 79.7194705,35.5638708 79.7194705,35.2704756 C79.7194705,34.9878817 79.7242134,34.7763759 79.735122,34.635707 C79.7453192,34.4947869 79.7612079,34.3619049 79.7834995,34.2378148 C79.0433713,34.3912947 78.2086224,34.5038299 77.2804385,34.5749179 C76.351306,34.6465083 75.2739582,34.682178 74.0493436,34.682178 L73.1007653,34.6650967 C73.0507278,33.6932251 73.0127846,32.5952538 72.9885959,31.3724388 C72.9636957,30.1483678 72.9516013,28.6884252 72.9516013,26.9903502 C72.9516013,24.8114386 72.9665414,22.5379271 72.9961845,20.1691626 C73.0258276,17.8006745 73.0711222,15.3582849 73.1313569,12.84536 C72.8894694,12.8875606 72.6478191,12.91896 72.4059316,12.9405376 C72.1642813,12.9611355 71.9121966,12.9719369 71.6492033,12.9719369 C71.4082644,12.9719369 71.1564169,12.9611355 70.8941349,12.9405376 C70.6311416,12.91896 70.3579511,12.8875606 70.0743261,12.84536" id="path30" fill="#FFFFFF" sketch:type="MSShapeGroup" mask="url(#mask-2)"></path>
                    <path d="M87.7693432,12.84536 C87.829578,13.8058776 87.8741611,14.6840788 87.9047528,15.4781047 C87.9343959,16.2708244 87.9490988,17.0322704 87.9490988,17.7584738 C87.9490988,18.4745792 87.9343959,19.2204009 87.9047528,19.9986267 C87.8741611,20.7747675 87.829578,21.5949679 87.7693432,22.4555102 C86.2501951,25.2304813 84.8662193,27.7419242 83.6176531,29.9886081 C82.3688497,32.2350408 81.1952212,34.3289985 80.0984275,36.2694762 C80.3623694,36.2267732 80.6384057,36.1948715 80.9284335,36.1737711 C81.2182242,36.1521684 81.5324408,36.1423718 81.8703718,36.1423718 C82.2075914,36.1423718 82.5225194,36.1521684 82.8189501,36.1737711 C83.1137209,36.1948715 83.3923657,36.2267732 83.6565448,36.2694762 C84.511451,34.2182217 85.4434292,32.2252442 86.4531908,30.2912975 C87.4610553,28.3573508 88.5521575,26.4814301 89.7248374,24.6642637 C90.8448713,26.5816567 91.8906789,28.5078164 92.8624974,30.4420143 C93.8343159,32.375961 94.7328567,34.3181971 95.5562227,36.2694762 C95.7563727,36.2267732 95.9546256,36.1948715 96.1490841,36.1737711 C96.3437798,36.1521684 96.5465384,36.1423718 96.7568857,36.1423718 C96.9883388,36.1423718 97.2015318,36.1521684 97.3959903,36.1737711 C97.5913974,36.1948715 97.7777931,36.2267732 97.9573115,36.2694762 C96.5956273,33.9273384 95.3034265,31.6560374 94.0797605,29.4543174 C92.8560945,27.2523461 91.6952718,25.1038541 90.5984781,23.0079372 C90.5735779,22.0237821 90.555792,21.2798946 90.5439348,20.7765259 C90.5318404,20.2731572 90.526149,19.8041267 90.526149,19.3685805 C90.526149,18.3962819 90.5410891,17.3698005 90.5707322,16.2904679 C90.6013238,15.2120897 90.6456698,14.0631762 90.7059046,12.84536 C90.4604599,12.9091382 90.2188096,12.9563377 89.9797679,12.987737 C89.7397776,13.019915 89.5035815,13.0357152 89.2692827,13.0357152 C89.0356953,13.0357152 88.7959421,13.019915 88.5512089,12.987737 C88.3057643,12.9563377 88.0453795,12.9091382 87.7693432,12.84536" id="path32" fill="#FFFFFF" sketch:type="MSShapeGroup" mask="url(#mask-2)"></path>
                    <path d="M52.3949606,41.6091184 L64.1504545,47.9417326 L64.1559089,44.3139811 L52.4016006,37.980111 L52.3949606,41.6091184 Z M52.3942491,48.8663797 L64.149506,55.1997474 L64.1559089,51.5712424 L52.400652,45.2378746 L52.3942491,48.8663797 L52.3942491,48.8663797 Z" id="path34" fill="#EE2049" sketch:type="MSShapeGroup" mask="url(#mask-2)"></path>
                </g>
            </g>
        </g>
    </g>
</svg>